<?xml version="1.0" standalone="no"?>
<!DOCTYPE svg PUBLIC "-//W3C//DTD SVG 20010904//EN"
 "http://www.w3.org/TR/2001/REC-SVG-20010904/DTD/svg10.dtd">
<svg version="1.0" xmlns="http://www.w3.org/2000/svg"
 width="225.000000pt" height="225.000000pt" viewBox="0 0 225.000000 225.000000"
 preserveAspectRatio="xMidYMid meet">

<g transform="translate(0.000000,225.000000) scale(0.100000,-0.100000)"
fill="#000000" stroke="none">
<path d="M812 2221 c-49 -13 -106 -57 -132 -103 -20 -35 -24 -61 -28 -150 l-5
-108 -242 0 c-222 0 -243 -2 -258 -18 -20 -22 -22 -53 -5 -70 8 -8 53 -12 134
-12 l123 0 6 -42 c3 -24 37 -374 75 -778 39 -404 75 -752 80 -772 14 -48 52
-93 104 -121 40 -22 47 -22 461 -22 414 0 421 0 461 22 52 28 90 73 104 121 5
20 41 368 80 772 38 404 72 754 75 778 l6 42 123 0 c81 0 126 4 134 12 18 18
15 53 -6 71 -16 15 -49 17 -260 17 l-242 0 0 83 c0 104 -20 173 -62 216 -65
66 -62 66 -393 68 -165 1 -315 -2 -333 -6z m649 -130 c28 -29 29 -32 29 -130
l0 -101 -365 0 -365 0 0 101 c0 98 1 101 29 130 l29 29 307 0 307 0 29 -29z
m280 -336 c4 -3 -130 -1418 -144 -1530 -4 -28 -15 -48 -37 -67 l-30 -28 -405
0 -405 0 -32 29 -32 29 -76 781 c-42 430 -74 784 -71 787 6 5 1226 5 1232 -1z"/>
<path d="M770 1525 c-10 -12 -7 -131 14 -577 15 -310 29 -571 32 -580 7 -22
51 -35 73 -21 10 7 17 28 19 61 6 96 -48 1105 -59 1119 -15 18 -64 17 -79 -2z"/>
<path d="M1086 1518 c-14 -20 -16 -91 -16 -578 0 -604 0 -600 55 -600 55 0 55
-4 55 600 0 604 0 600 -55 600 -13 0 -31 -10 -39 -22z"/>
<path d="M1401 1527 c-11 -14 -65 -1023 -59 -1119 2 -33 9 -54 19 -61 22 -14
66 -1 73 21 3 9 17 270 32 580 21 446 24 565 14 577 -15 19 -64 20 -79 2z"/>
</g>
</svg>
