<?xml version="1.0" encoding="UTF-8"?>
<!DOCTYPE svg PUBLIC "-//W3C//DTD SVG 1.1//EN" "http://www.w3.org/Graphics/SVG/1.1/DTD/svg11.dtd">
<svg xmlns="http://www.w3.org/2000/svg" version="1.1" width="238px" height="212px" style="shape-rendering:geometricPrecision; text-rendering:geometricPrecision; image-rendering:optimizeQuality; fill-rule:evenodd; clip-rule:evenodd" xmlns:xlink="http://www.w3.org/1999/xlink">
<g><path style="opacity:1" fill="#fefefe" d="M -0.5,-0.5 C 70.5,-0.5 141.5,-0.5 212.5,-0.5C 205.211,1.64612 198.544,5.14612 192.5,10C 151.948,48.6888 117.282,91.8555 88.5,139.5C 83.0198,132.852 77.3531,126.352 71.5,120C 59.9346,108.556 45.9346,102.556 29.5,102C 19.8333,101.333 10.1667,101.333 0.5,102C 39.8354,130.553 69.8354,166.72 90.5,210.5C 90.5,210.833 90.5,211.167 90.5,211.5C 60.1667,211.5 29.8333,211.5 -0.5,211.5C -0.5,140.833 -0.5,70.1667 -0.5,-0.5 Z"/></g>
<g><path style="opacity:1" fill="#010101" d="M 212.5,-0.5 C 220.5,-0.5 228.5,-0.5 236.5,-0.5C 179.278,63.7547 130.611,134.088 90.5,210.5C 69.8354,166.72 39.8354,130.553 0.5,102C 10.1667,101.333 19.8333,101.333 29.5,102C 45.9346,102.556 59.9346,108.556 71.5,120C 77.3531,126.352 83.0198,132.852 88.5,139.5C 117.282,91.8555 151.948,48.6888 192.5,10C 198.544,5.14612 205.211,1.64612 212.5,-0.5 Z"/></g>
<g><path style="opacity:1" fill="#fefefe" d="M 236.5,-0.5 C 236.833,-0.5 237.167,-0.5 237.5,-0.5C 237.5,70.1667 237.5,140.833 237.5,211.5C 188.5,211.5 139.5,211.5 90.5,211.5C 90.5,211.167 90.5,210.833 90.5,210.5C 130.611,134.088 179.278,63.7547 236.5,-0.5 Z"/></g>
</svg>
